<?xml version="1.0" encoding="UTF-8" ?>
<!DOCTYPE svg PUBLIC "-//W3C//DTD SVG 1.1//EN" "http://www.w3.org/Graphics/SVG/1.1/DTD/svg11.dtd">
<svg width="207pt" height="186pt" viewBox="0 0 207 186" version="1.1" xmlns="http://www.w3.org/2000/svg">
<g id="#091638ff">
</g>
<g id="#af2c54ff">
<path fill="#af2c54" opacity="1.00" d=" M 147.30 10.36 C 158.20 10.12 169.10 9.91 179.99 10.02 C 187.91 10.64 194.36 18.17 194.00 26.06 C 193.68 29.68 191.98 32.99 190.08 36.02 C 164.07 81.01 138.09 126.02 112.10 171.01 C 109.23 175.90 103.69 179.05 98.01 178.87 C 92.77 178.41 87.67 175.48 85.22 170.72 C 60.09 125.55 34.92 80.39 9.79 35.21 C 7.32 30.79 7.22 25.07 9.66 20.62 C 12.06 15.96 16.94 12.80 22.16 12.42 C 39.76 11.59 57.40 12.43 75.01 11.62 C 99.10 10.64 123.22 11.43 147.30 10.36 M 145.39 13.51 C 106.27 14.12 67.14 14.76 28.02 15.36 C 24.10 15.41 19.82 15.09 16.44 17.47 C 11.20 20.77 9.30 28.23 12.38 33.63 C 36.77 77.55 61.26 121.42 85.67 165.33 C 87.21 168.03 88.50 171.02 90.99 173.01 C 95.20 176.55 101.85 176.65 106.18 173.26 C 108.74 171.34 110.12 168.38 111.69 165.69 C 137.53 120.89 163.46 76.13 189.28 31.32 C 193.71 24.17 188.44 13.81 180.09 13.11 C 168.53 12.92 156.95 13.43 145.39 13.51 Z" />
</g>
<g id="#fb5085ff">
<path fill="#fb5085" opacity="1.00" d=" M 145.39 13.51 C 156.95 13.43 168.53 12.92 180.09 13.11 C 188.44 13.81 193.71 24.17 189.28 31.32 C 163.46 76.13 137.53 120.89 111.69 165.69 C 110.12 168.38 108.74 171.34 106.18 173.26 C 101.85 176.65 95.20 176.55 90.99 173.01 C 88.50 171.02 87.21 168.03 85.67 165.33 C 61.26 121.42 36.77 77.55 12.38 33.63 C 9.30 28.23 11.20 20.77 16.44 17.47 C 19.82 15.09 24.10 15.41 28.02 15.36 C 67.14 14.76 106.27 14.12 145.39 13.51 Z" />
</g>
</svg>
