<svg width="93pt" height="93pt" viewBox="0 0 93 93" version="1.1" xmlns="http://www.w3.org/2000/svg">
<g id="#050d24ff">
</g>
<g id="#163d94ff">
<path fill="#163d94" opacity="1.00" d=" M 43.19 1.94 C 47.62 0.57 52.67 1.63 55.94 5.00 C 66.25 15.07 76.36 25.33 86.56 35.51 C 88.61 37.51 90.79 39.51 91.91 42.21 C 93.34 46.61 92.57 51.78 89.13 55.07 C 79.15 64.78 69.43 74.76 59.50 84.52 C 56.90 87.01 54.69 90.29 51.04 91.32 C 46.97 92.05 42.28 92.07 39.20 88.86 C 28.93 79.13 19.22 68.82 9.04 58.99 C 6.13 56.15 2.91 53.14 2.14 48.95 C 0.70 44.58 3.44 40.36 6.10 37.12 C 15.53 27.54 25.11 18.11 34.62 8.63 C 37.10 5.96 39.77 3.34 43.19 1.94 M 45.44 4.60 C 42.52 5.14 40.50 7.49 38.47 9.45 C 28.29 19.61 18.05 29.71 7.98 39.97 C 4.32 43.30 4.32 49.72 7.95 53.06 C 18.73 63.97 29.53 74.84 40.48 85.57 C 43.78 89.42 50.34 89.66 53.78 85.88 C 63.27 76.67 72.45 67.13 81.93 57.90 C 84.42 55.11 87.92 52.88 88.95 49.07 C 90.32 45.78 88.54 42.17 86.28 39.76 C 75.64 28.76 64.78 17.98 53.79 7.34 C 51.61 5.22 48.47 4.02 45.44 4.60 Z" />
</g>
</svg>
