<?xml version="1.0" encoding="UTF-8" ?>
<!DOCTYPE svg PUBLIC "-//W3C//DTD SVG 1.1//EN" "http://www.w3.org/Graphics/SVG/1.1/DTD/svg11.dtd">
<svg width="628pt" height="581pt" viewBox="0 0 628 581" version="1.1" xmlns="http://www.w3.org/2000/svg">
<g id="#ffffffff">
<path fill="#ffffff" opacity="1.00" d=" M 34.98 192.97 C 36.70 193.00 38.42 193.03 40.14 193.06 C 39.98 193.69 39.64 194.95 39.47 195.58 C 37.99 195.77 36.51 195.95 35.03 196.15 C 35.02 195.36 35.00 193.77 34.98 192.97 Z" />
<path fill="#ffffff" opacity="1.00" d=" M 108.60 353.83 C 110.53 353.80 112.47 353.80 114.40 353.83 C 112.47 353.93 110.53 353.93 108.60 353.83 Z" />
<path fill="#ffffff" opacity="1.00" d=" M 181.15 371.19 C 185.13 369.67 189.57 370.85 190.90 375.28 C 187.46 374.42 184.18 373.02 181.15 371.19 Z" />
<path fill="#ffffff" opacity="1.00" d=" M 210.17 416.17 C 211.79 415.64 212.35 416.20 211.83 417.83 C 210.20 418.35 209.65 417.79 210.17 416.17 Z" />
<path fill="#ffffff" opacity="1.00" d=" M 220.49 422.37 C 221.40 422.25 223.22 422.00 224.12 421.88 C 224.00 422.78 223.75 424.60 223.63 425.51 C 222.57 424.47 221.52 423.43 220.49 422.37 Z" />
<path fill="#ffffff" opacity="1.00" d=" M 195.47 430.08 C 201.66 431.31 207.56 433.99 212.56 437.84 C 206.18 437.18 200.27 434.27 195.47 430.08 Z" />
<path fill="#ffffff" opacity="1.00" d=" M 208.44 441.86 C 219.29 444.60 228.76 450.99 238.92 455.47 C 226.74 457.93 216.26 450.23 208.44 441.86 Z" />
<path fill="#ffffff" opacity="1.00" d=" M 224.33 442.12 C 235.52 442.69 245.89 447.45 256.48 450.69 C 245.08 452.49 233.60 448.59 224.33 442.12 Z" />
<path fill="#ffffff" opacity="1.00" d=" M 228.29 461.10 C 234.27 461.13 239.69 463.80 244.61 466.93 C 238.75 466.49 232.67 465.29 228.29 461.10 Z" />
<path fill="#ffffff" opacity="1.00" d=" M 227.02 475.25 C 234.59 475.01 241.36 478.68 246.62 483.83 C 239.62 482.30 231.83 481.11 227.02 475.25 Z" />
<path fill="#ffffff" opacity="1.00" d=" M 215.41 478.31 C 218.25 478.59 221.04 479.24 223.73 480.21 C 220.88 479.70 218.12 479.29 215.41 478.31 Z" />
<path fill="#ffffff" opacity="1.00" d=" M 255.03 498.26 C 259.05 497.15 263.77 497.66 264.93 502.41 C 261.35 501.79 257.96 500.41 255.03 498.26 Z" />
<path fill="#ffffff" opacity="1.00" d=" M 290.49 504.08 C 293.38 501.90 296.94 501.60 300.51 501.92 C 297.62 504.12 294.03 504.35 290.49 504.08 Z" />
<path fill="#ffffff" opacity="1.00" d=" M 266.27 533.47 C 268.49 533.12 270.71 532.79 272.95 532.51 C 272.90 533.58 272.81 535.71 272.76 536.78 C 270.57 535.72 268.41 534.61 266.27 533.47 Z" />
</g>
<g id="#ff007fff">
<path fill="#ff007f" opacity="1.00" d=" M 66.08 29.10 C 71.60 15.69 94.29 15.56 100.29 28.69 C 101.53 36.09 98.56 43.33 98.48 50.71 C 99.56 55.25 104.72 57.28 108.99 57.20 C 117.57 58.60 126.57 55.30 134.94 58.06 C 141.26 60.94 137.55 69.69 138.29 74.93 C 149.41 83.38 164.46 80.91 176.77 86.31 C 182.57 88.01 183.84 93.83 186.70 98.16 C 196.77 101.84 206.04 107.19 214.99 113.04 C 221.77 117.15 229.92 117.71 237.13 120.83 C 252.11 126.94 268.49 131.19 280.79 142.23 C 284.55 145.71 286.71 150.60 287.30 155.65 C 283.24 156.21 279.14 156.79 275.04 156.76 C 260.84 155.72 248.58 145.89 234.10 147.08 C 229.70 148.57 226.02 152.72 225.51 157.41 C 224.94 163.73 224.82 170.12 225.31 176.46 C 228.90 214.79 229.32 253.51 236.54 291.43 C 241.31 317.10 248.91 342.36 260.06 366.00 C 270.85 386.02 285.41 403.66 300.06 420.94 C 308.98 431.31 317.56 442.09 327.96 451.04 C 368.71 486.48 419.96 508.71 473.07 517.37 C 484.14 507.36 493.10 494.38 506.86 487.80 C 512.71 485.08 519.36 486.52 524.58 489.91 C 520.50 500.85 511.87 508.97 506.14 518.96 C 514.26 521.05 522.72 520.74 531.02 520.49 C 540.56 519.91 549.34 524.99 558.87 524.75 C 563.87 523.61 568.16 520.47 572.37 517.66 C 586.19 526.99 603.59 520.35 619.01 522.99 C 628.97 524.31 629.97 541.71 620.46 544.57 C 607.45 549.76 592.47 548.16 580.14 555.31 C 572.63 560.80 563.30 555.17 554.99 556.14 C 540.11 557.45 527.02 566.25 511.96 566.70 C 494.96 567.88 478.17 571.02 461.18 572.32 C 428.86 575.65 396.31 573.93 364.04 570.83 C 323.05 567.83 282.15 559.89 244.18 543.80 C 218.79 532.16 194.36 518.04 172.68 500.35 C 153.42 485.46 135.23 468.85 121.03 448.96 C 84.06 402.14 54.87 348.98 36.94 292.01 C 28.16 262.91 24.18 232.41 12.88 204.06 C 9.79 195.78 4.21 188.13 4.11 178.96 C 2.86 166.61 9.93 154.81 18.88 146.88 C 30.13 136.81 46.28 136.69 58.28 127.92 C 51.97 129.78 45.93 132.44 39.74 134.66 C 35.92 136.08 31.78 134.65 28.08 133.52 C 28.87 127.79 29.34 120.21 35.13 117.10 C 43.34 112.06 56.17 113.69 60.98 104.00 C 65.75 96.86 61.83 87.91 57.77 81.48 C 64.06 74.49 72.02 69.30 78.59 62.61 C 80.41 60.45 83.44 56.84 80.85 54.14 C 75.39 46.21 63.81 40.43 66.08 29.10 M 81.43 22.44 C 76.87 23.28 74.03 27.70 72.67 31.81 C 71.40 35.60 73.84 39.21 75.49 42.45 C 74.98 39.56 74.36 36.70 73.83 33.82 C 80.97 33.55 88.11 33.79 95.25 33.65 C 93.34 27.97 88.83 19.68 81.43 22.44 M 104.94 67.83 C 110.10 68.56 115.53 68.52 119.82 65.17 C 114.71 64.08 108.58 63.23 104.94 67.83 M 110.62 79.89 C 110.76 91.66 120.26 105.25 133.13 103.64 C 132.87 99.80 132.54 95.97 132.20 92.14 C 134.61 92.29 137.02 92.45 139.43 92.59 C 131.49 85.32 120.79 82.45 110.62 79.89 M 81.35 101.58 C 92.18 98.82 103.31 98.81 114.43 99.69 C 111.72 97.47 109.27 94.42 105.97 93.28 C 97.28 94.01 89.03 97.63 81.35 101.58 M 115.57 111.51 C 100.49 115.45 84.97 118.33 70.70 124.79 C 89.19 121.39 109.93 112.23 127.81 122.53 C 127.60 119.89 127.44 117.22 127.29 114.58 C 128.04 114.33 129.53 113.81 130.28 113.56 C 135.79 118.27 138.77 126.53 146.00 128.78 C 153.23 127.66 152.69 118.68 152.41 113.12 C 155.59 115.48 158.80 117.81 162.03 120.11 C 160.35 116.65 157.94 113.51 156.77 109.83 C 156.90 106.96 158.00 104.24 158.69 101.47 C 143.85 102.57 130.04 108.51 115.57 111.51 M 188.63 123.36 C 190.82 128.02 193.29 132.58 194.76 137.54 C 190.03 138.01 185.28 137.55 180.56 137.31 C 181.20 134.05 181.00 130.49 182.50 127.47 C 184.09 125.68 186.30 124.60 188.27 123.27 C 177.53 125.27 166.69 126.75 156.02 129.14 C 137.02 133.11 118.80 139.96 100.07 144.97 C 88.45 148.09 76.47 149.70 64.99 153.35 C 68.14 156.31 71.97 158.37 75.68 160.53 C 74.02 162.04 72.38 163.58 70.78 165.16 C 73.74 167.71 76.74 170.21 79.52 172.97 C 71.64 176.71 62.16 174.57 55.33 169.60 C 51.85 166.29 52.60 161.07 52.23 156.75 C 40.56 159.49 27.17 161.41 19.02 170.99 C 12.54 179.84 18.07 191.38 24.60 198.46 C 25.72 189.36 23.27 178.84 28.97 170.96 C 33.23 165.50 40.37 167.35 46.23 167.94 C 42.87 170.12 39.47 172.25 36.16 174.50 C 37.75 183.27 46.05 188.70 54.02 190.97 C 62.93 194.58 60.09 180.90 66.88 180.91 C 71.91 180.35 76.95 179.97 82.01 179.77 C 81.68 181.98 81.33 184.18 81.01 186.39 C 97.17 183.48 111.11 174.33 125.97 167.94 C 135.23 163.78 145.67 164.26 155.55 163.33 C 175.83 161.73 195.59 156.59 215.09 150.99 C 222.87 148.43 230.16 143.40 234.03 136.01 C 236.51 131.65 234.89 126.55 234.36 121.91 C 219.08 120.77 203.87 122.65 188.63 123.36 M 266.11 140.01 C 270.45 145.02 276.11 148.60 281.33 152.61 C 282.26 143.98 273.33 139.90 266.11 140.01 M 194.68 166.61 C 185.51 167.83 176.50 170.09 167.80 173.24 C 171.36 175.73 175.00 178.13 178.41 180.83 C 170.50 180.30 162.79 178.42 154.99 177.21 C 153.85 179.30 152.84 181.51 151.31 183.35 C 146.65 185.86 141.10 184.12 136.08 184.27 C 136.11 186.36 136.55 188.62 135.55 190.56 C 133.07 193.61 129.30 195.21 125.86 196.89 C 119.12 199.85 111.55 198.13 104.40 198.75 C 104.61 203.58 104.16 208.76 107.13 212.91 C 108.93 217.23 113.53 222.13 111.10 227.07 C 106.86 234.13 97.65 232.57 91.03 235.15 C 87.29 236.60 87.34 241.46 85.96 244.48 C 83.81 245.01 81.66 245.55 79.52 246.09 C 80.86 250.59 81.04 257.15 86.53 258.52 C 95.67 259.59 106.69 261.91 110.11 271.89 C 112.64 280.39 110.30 289.60 110.70 298.32 C 101.85 296.47 99.90 286.81 99.31 279.21 C 101.69 278.30 104.08 277.40 106.47 276.49 C 103.79 272.13 100.72 266.60 95.11 265.91 C 90.19 269.47 86.48 274.40 82.58 279.00 C 87.67 283.91 92.89 288.68 97.64 293.94 C 95.96 295.91 94.25 297.84 92.44 299.70 C 97.31 302.54 102.99 304.99 105.56 310.35 C 108.36 316.62 110.45 323.19 113.04 329.55 C 117.93 327.71 122.58 325.21 127.67 323.96 C 120.63 316.37 111.43 310.46 106.16 301.38 C 109.72 301.53 113.30 301.74 116.86 301.95 C 116.33 295.99 116.11 290.00 115.86 284.03 C 118.19 282.60 120.55 281.23 122.93 279.88 C 121.94 288.15 122.13 296.47 123.02 304.74 C 128.09 301.30 132.26 296.72 137.25 293.20 C 140.41 292.16 142.26 296.32 144.05 297.95 C 147.39 302.68 152.49 307.25 151.83 313.66 C 150.52 315.39 148.59 317.56 146.16 316.81 C 141.16 315.77 136.30 314.22 131.53 312.41 C 136.89 318.76 143.92 323.42 149.33 329.70 C 154.84 336.38 150.69 346.77 157.04 352.96 C 160.52 354.11 164.21 353.52 167.81 353.53 C 169.16 355.90 170.51 358.28 171.98 360.59 C 173.24 357.01 174.07 353.27 174.86 349.57 C 179.19 351.58 184.13 352.95 187.53 356.43 C 190.63 361.13 192.14 366.70 194.26 371.88 C 195.64 371.88 197.02 371.88 198.40 371.89 C 196.04 365.06 192.85 358.53 190.83 351.59 C 198.31 358.25 206.93 365.13 210.01 375.02 C 212.60 384.83 200.26 385.54 193.99 386.71 C 201.51 392.86 208.49 400.89 218.57 402.58 C 226.73 404.77 232.48 412.21 235.26 419.86 C 236.22 422.25 236.25 425.34 234.21 427.19 C 231.38 429.42 227.38 429.14 224.26 427.67 C 214.46 423.30 205.50 416.57 194.61 415.07 C 201.65 422.22 211.05 426.09 220.15 429.89 C 236.67 436.94 253.11 444.32 268.63 453.39 C 281.72 461.05 290.79 473.45 301.20 484.14 C 291.60 485.58 281.39 485.29 272.80 480.29 C 272.93 478.97 273.07 477.66 273.21 476.36 C 275.26 475.64 277.29 474.89 279.32 474.13 C 272.90 472.71 266.43 471.36 259.84 471.20 C 261.41 477.43 265.74 482.87 271.84 485.19 C 283.22 489.23 295.47 489.20 307.35 490.32 C 305.51 493.45 303.67 496.59 301.82 499.73 C 303.27 499.90 304.72 500.09 306.18 500.28 C 305.00 502.21 303.80 504.12 302.63 506.07 C 305.81 507.85 309.00 509.65 312.44 510.90 C 316.10 511.56 320.00 510.25 323.57 511.48 C 327.92 515.61 331.62 520.38 335.76 524.73 C 341.69 520.70 346.96 515.79 352.76 511.58 C 350.45 515.17 348.06 518.71 345.89 522.39 C 352.90 519.56 359.34 515.14 367.00 514.13 C 383.72 513.94 398.10 523.29 413.37 528.57 C 423.16 531.33 433.09 533.71 443.04 535.80 C 448.24 535.42 453.35 533.63 457.72 530.76 C 446.84 526.01 434.88 524.53 423.99 519.95 C 420.95 519.21 421.11 515.98 421.01 513.59 C 414.66 513.59 408.32 513.48 401.99 513.16 C 402.73 511.97 403.49 510.79 404.25 509.62 C 402.20 510.11 400.16 511.27 398.01 510.89 C 385.69 506.44 379.97 491.93 367.02 488.87 C 358.67 486.31 350.26 483.73 342.57 479.50 C 330.42 473.11 317.96 465.25 311.20 452.85 C 308.74 449.03 309.90 443.81 306.53 440.48 C 301.82 434.86 296.34 429.92 291.99 424.01 C 285.03 415.33 280.32 405.16 273.71 396.25 C 269.46 391.25 264.81 386.59 260.30 381.82 C 259.79 384.49 259.39 387.33 258.91 390.03 C 257.28 385.87 255.53 381.68 252.99 377.99 C 249.61 374.37 244.91 372.52 240.35 370.91 C 242.20 366.51 245.61 363.12 248.92 359.79 C 244.70 351.65 242.83 342.63 240.17 333.93 C 235.58 319.34 232.69 304.30 229.40 289.39 C 224.65 292.98 221.60 298.05 218.75 303.16 C 219.23 296.87 220.19 290.60 222.55 284.71 C 224.08 285.82 225.61 286.95 227.15 288.08 C 228.10 284.44 228.87 280.73 229.53 277.03 C 228.00 276.74 224.93 276.16 223.40 275.87 C 224.95 269.91 226.28 263.73 225.27 257.54 C 224.69 254.55 222.03 252.22 222.17 249.08 C 222.53 237.77 224.28 226.23 221.61 215.09 C 219.69 209.79 218.04 204.12 219.54 198.47 C 221.51 186.14 222.39 172.87 216.27 161.50 C 208.96 162.77 202.06 165.72 194.68 166.61 M 34.98 192.97 C 35.00 193.77 35.02 195.36 35.03 196.15 C 36.51 195.95 37.99 195.77 39.47 195.58 C 39.64 194.95 39.98 193.69 40.14 193.06 C 38.42 193.03 36.70 193.00 34.98 192.97 M 78.61 206.14 C 83.13 208.36 87.71 210.46 92.27 212.61 C 89.53 212.91 84.05 213.50 81.31 213.79 C 84.51 216.09 88.03 218.84 92.34 217.37 C 96.38 216.72 102.67 211.74 98.19 207.83 C 92.44 204.32 84.93 206.97 78.61 206.14 M 58.08 214.08 C 59.70 216.72 61.58 219.18 63.55 221.56 C 64.90 220.41 67.59 218.10 68.93 216.95 C 68.94 216.11 68.96 214.44 68.97 213.60 C 65.33 213.67 61.70 213.84 58.08 214.08 M 57.60 239.79 C 60.24 241.73 62.87 243.96 66.14 244.72 C 68.26 244.82 70.01 243.28 71.84 242.41 C 67.16 241.21 62.39 240.41 57.60 239.79 M 39.85 246.96 C 38.25 252.23 42.00 256.29 46.37 258.51 C 45.51 254.05 43.66 249.68 39.85 246.96 M 57.77 252.54 C 61.35 253.91 65.04 254.99 68.78 255.87 C 67.59 253.53 66.50 251.07 64.68 249.13 C 61.36 248.06 59.72 250.80 57.77 252.54 M 47.18 268.67 C 48.46 275.73 50.80 282.50 52.91 289.33 C 48.61 284.62 45.24 279.15 40.96 274.42 C 41.74 281.12 45.01 287.08 47.90 293.05 C 56.37 309.16 60.07 328.36 74.70 340.56 C 68.81 328.71 64.21 316.29 59.71 303.87 C 59.47 300.91 60.67 297.96 60.04 294.99 C 58.02 285.28 53.03 276.55 47.18 268.67 M 86.50 307.59 C 88.87 308.63 91.25 309.52 93.67 310.49 C 94.49 308.94 95.30 307.38 96.09 305.82 C 92.89 306.42 89.70 307.03 86.50 307.59 M 136.46 324.06 C 137.85 329.34 139.29 334.62 139.94 340.06 C 129.49 339.70 120.74 332.85 110.29 332.37 C 111.66 337.38 113.28 342.49 116.28 346.79 C 118.81 349.59 122.74 350.44 126.00 352.04 C 137.48 356.52 147.65 364.14 159.76 367.03 C 157.45 358.76 150.40 353.15 146.37 345.82 C 143.39 340.11 143.89 333.33 141.44 327.46 C 140.16 325.86 138.18 325.08 136.46 324.06 M 58.91 328.64 C 61.47 339.74 66.97 349.88 72.10 359.95 C 82.58 380.09 96.98 397.81 108.74 417.17 C 117.81 432.70 126.84 448.57 139.42 461.60 C 145.79 468.29 153.78 473.15 160.19 479.80 C 165.89 485.08 170.81 491.59 178.03 494.90 C 182.87 497.45 188.35 498.09 193.67 499.01 C 191.71 495.24 190.01 491.16 186.67 488.37 C 181.94 483.85 175.34 482.37 169.89 479.01 C 165.33 475.64 161.82 471.08 158.85 466.31 C 156.23 461.23 149.59 460.21 146.39 455.69 C 143.34 451.98 141.43 447.43 138.25 443.84 C 134.18 441.05 129.31 439.61 125.28 436.71 C 121.00 429.94 119.62 421.88 116.19 414.72 C 112.56 407.65 104.93 403.63 101.47 396.45 C 97.00 387.67 90.30 380.42 84.26 372.75 C 78.27 365.42 74.56 356.65 71.06 347.95 C 68.34 340.78 63.65 334.59 58.91 328.64 M 108.60 353.83 C 110.53 353.93 112.47 353.93 114.40 353.83 C 112.47 353.80 110.53 353.80 108.60 353.83 M 109.30 369.11 C 111.66 372.29 114.93 374.58 118.62 375.97 C 115.97 373.12 112.62 371.07 109.30 369.11 M 181.15 371.19 C 184.18 373.02 187.46 374.42 190.90 375.28 C 189.57 370.85 185.13 369.67 181.15 371.19 M 149.54 373.12 C 150.68 375.37 151.90 377.57 153.12 379.78 C 150.46 378.84 147.79 377.96 145.12 377.08 C 145.46 379.04 145.80 381.01 146.12 382.98 C 143.72 382.63 141.32 382.26 138.92 381.94 C 141.88 385.40 144.84 388.85 147.64 392.45 C 146.03 392.73 144.43 393.02 142.83 393.31 C 148.38 397.30 153.57 401.75 158.38 406.62 C 154.12 405.28 149.92 403.75 145.53 402.94 C 159.12 413.29 174.80 420.49 190.03 428.08 C 181.12 416.53 176.29 401.64 163.66 393.28 C 166.86 393.07 170.03 392.81 173.25 392.66 C 170.83 391.41 168.41 390.16 166.01 388.91 C 166.03 387.65 166.05 386.39 166.08 385.14 C 169.00 383.98 171.90 382.79 174.83 381.66 C 174.85 381.09 174.91 379.93 174.93 379.35 C 166.49 377.18 158.15 374.58 149.54 373.12 M 123.65 380.89 C 126.80 383.67 130.62 385.53 134.65 386.66 C 131.29 384.21 127.48 382.46 123.65 380.89 M 210.17 416.17 C 209.65 417.79 210.20 418.35 211.83 417.83 C 212.35 416.20 211.79 415.64 210.17 416.17 M 220.49 422.37 C 221.52 423.43 222.57 424.47 223.63 425.51 C 223.75 424.60 224.00 422.78 224.12 421.88 C 223.22 422.00 221.40 422.25 220.49 422.37 M 164.67 427.78 C 165.49 430.02 166.21 432.30 166.79 434.62 C 169.51 433.05 172.26 431.55 175.06 430.13 C 171.59 429.33 168.13 428.55 164.67 427.78 M 195.47 430.08 C 200.27 434.27 206.18 437.18 212.56 437.84 C 207.56 433.99 201.66 431.31 195.47 430.08 M 169.42 438.68 C 168.48 439.69 167.53 440.71 166.57 441.72 C 176.18 455.01 196.24 458.86 210.63 451.62 C 198.09 444.30 184.02 439.35 169.42 438.68 M 208.44 441.86 C 216.26 450.23 226.74 457.93 238.92 455.47 C 228.76 450.99 219.29 444.60 208.44 441.86 M 224.33 442.12 C 233.60 448.59 245.08 452.49 256.48 450.69 C 245.89 447.45 235.52 442.69 224.33 442.12 M 228.29 461.10 C 232.67 465.29 238.75 466.49 244.61 466.93 C 239.69 463.80 234.27 461.13 228.29 461.10 M 227.02 475.25 C 231.83 481.11 239.62 482.30 246.62 483.83 C 241.36 478.68 234.59 475.01 227.02 475.25 M 215.41 478.31 C 218.12 479.29 220.88 479.70 223.73 480.21 C 221.04 479.24 218.25 478.59 215.41 478.31 M 255.03 498.26 C 257.96 500.41 261.35 501.79 264.93 502.41 C 263.77 497.66 259.05 497.15 255.03 498.26 M 290.49 504.08 C 294.03 504.35 297.62 504.12 300.51 501.92 C 296.94 501.60 293.38 501.90 290.49 504.08 M 487.94 504.02 C 488.07 504.94 488.33 506.78 488.46 507.70 C 490.21 506.40 491.93 505.06 493.61 503.67 C 491.71 503.76 489.82 503.89 487.94 504.02 M 214.49 512.97 C 225.52 525.43 243.26 528.44 256.45 537.93 C 239.24 534.39 224.79 523.56 208.68 517.08 C 215.39 522.72 223.14 527.01 230.87 531.08 C 246.59 538.03 262.35 545.01 278.68 550.43 C 301.08 558.44 325.00 560.00 348.32 563.67 C 381.12 568.27 414.81 572.14 447.57 565.19 C 435.32 559.93 421.83 563.24 408.98 562.77 C 398.01 563.12 387.45 558.85 376.42 560.48 C 356.66 561.80 337.10 558.41 317.67 555.36 C 307.93 554.01 299.16 549.38 290.12 545.85 C 276.36 540.37 262.41 535.34 248.96 529.12 C 237.28 524.13 226.72 516.66 214.49 512.97 M 238.53 516.47 C 240.17 517.82 241.83 519.16 243.54 520.44 C 244.08 518.96 244.63 517.50 245.18 516.04 C 243.52 516.15 240.19 516.36 238.53 516.47 M 363.44 536.30 C 366.97 535.46 370.38 534.23 373.77 532.95 C 374.39 534.86 375.01 536.78 375.64 538.71 C 378.08 537.24 380.97 536.09 382.55 533.60 C 384.19 529.84 383.11 525.61 382.83 521.75 C 374.23 522.51 366.50 528.26 363.44 536.30 M 471.26 532.63 C 481.86 534.52 492.70 533.95 503.41 534.68 C 511.76 534.45 521.33 536.68 528.69 531.58 C 515.03 528.52 501.00 526.71 487.02 526.24 C 480.86 525.31 475.66 528.88 471.26 532.63 M 388.68 530.69 C 386.45 532.50 387.80 535.56 387.85 537.96 C 392.32 534.80 397.16 531.74 399.82 526.78 C 395.96 527.41 391.63 527.83 388.68 530.69 M 538.69 532.73 C 540.14 532.84 541.60 532.96 543.06 533.08 C 542.97 532.21 542.80 530.46 542.71 529.59 C 541.36 530.62 540.02 531.67 538.69 532.73 M 582.11 532.09 C 591.74 536.31 602.66 532.60 612.49 531.08 C 602.41 529.38 592.09 530.30 582.11 532.09 M 266.27 533.47 C 268.41 534.61 270.57 535.72 272.76 536.78 C 272.81 535.71 272.90 533.58 272.95 532.51 C 270.71 532.79 268.49 533.12 266.27 533.47 M 403.52 541.18 C 406.60 538.75 409.75 536.41 412.58 533.69 C 408.26 534.25 404.99 537.15 403.52 541.18 M 388.44 543.51 C 393.30 543.16 396.90 539.88 398.58 535.45 C 394.09 536.45 390.56 539.50 388.44 543.51 M 285.70 539.25 C 299.81 547.48 316.25 552.36 332.66 551.58 C 318.28 543.65 301.35 543.19 285.70 539.25 M 408.32 546.13 C 411.63 545.11 414.51 543.07 415.68 539.68 C 412.81 541.31 410.28 543.47 408.32 546.13 M 424.30 549.29 C 428.59 546.92 432.24 543.61 435.60 540.07 C 430.90 541.86 425.01 543.46 424.30 549.29 M 454.82 563.90 C 455.05 564.66 455.52 566.18 455.75 566.94 C 457.65 566.13 459.53 565.28 461.40 564.42 C 459.20 564.23 457.01 564.05 454.82 563.90 Z" />
<path fill="#ff007f" opacity="1.00" d=" M 198.54 139.23 C 197.65 132.68 203.57 127.63 209.84 127.30 C 209.86 128.21 209.90 130.04 209.93 130.95 C 207.08 131.81 204.22 132.63 201.36 133.42 C 200.43 135.36 199.49 137.30 198.54 139.23 Z" />
<path fill="#ff007f" opacity="1.00" d=" M 118.08 149.61 C 127.02 138.12 143.73 137.32 156.99 139.45 C 152.10 144.82 144.63 143.42 138.17 142.99 C 131.05 143.42 124.73 147.33 118.08 149.61 Z" />
<path fill="#ff007f" opacity="1.00" d=" M 105.59 150.17 C 110.07 151.55 114.07 154.01 118.00 156.49 C 115.47 157.48 112.91 158.82 110.13 158.75 C 107.18 158.21 104.81 156.23 102.40 154.58 C 103.47 153.11 104.53 151.64 105.59 150.17 Z" />
<path fill="#ff007f" opacity="1.00" d=" M 91.38 155.37 C 93.14 154.03 94.95 152.76 96.79 151.52 C 96.23 153.05 95.65 154.58 95.06 156.10 C 94.14 155.92 92.30 155.55 91.38 155.37 Z" />
<path fill="#ff007f" opacity="1.00" d=" M 90.37 164.23 C 92.26 161.91 93.98 159.12 96.93 158.03 C 103.96 160.23 109.18 166.18 110.63 173.33 C 103.70 170.71 97.21 167.08 90.37 164.23 Z" />
<path fill="#ff007f" opacity="1.00" d=" M 208.82 184.81 C 214.15 192.09 209.58 201.17 209.30 209.29 C 211.64 203.58 213.28 197.51 216.71 192.31 C 217.05 201.95 213.45 211.00 208.60 219.12 C 206.29 217.65 203.18 216.54 202.33 213.64 C 200.53 203.56 203.90 193.48 208.82 184.81 Z" />
<path fill="#ff007f" opacity="1.00" d=" M 130.86 212.10 C 135.13 218.11 141.23 222.16 147.20 226.27 C 146.29 227.36 145.37 228.44 144.45 229.52 C 146.10 231.74 147.69 234.01 149.17 236.35 C 144.10 233.98 138.79 231.68 134.83 227.61 C 133.29 222.49 132.24 217.26 130.86 212.10 Z" />
<path fill="#ff007f" opacity="1.00" d=" M 143.49 216.94 C 145.28 215.37 147.11 213.84 148.99 212.37 C 149.88 215.04 150.65 217.75 151.31 220.49 C 148.65 219.43 146.05 218.24 143.49 216.94 Z" />
<path fill="#ff007f" opacity="1.00" d=" M 125.55 234.19 C 135.01 234.80 143.80 238.59 151.37 244.16 C 142.23 242.49 133.86 238.13 125.55 234.19 Z" />
<path fill="#ff007f" opacity="1.00" d=" M 118.50 236.58 C 130.30 237.69 139.36 246.27 147.47 254.08 C 138.04 251.68 125.67 251.24 120.96 241.19 C 120.06 239.70 119.29 238.13 118.50 236.58 Z" />
<path fill="#ff007f" opacity="1.00" d=" M 108.41 243.04 C 117.38 245.42 125.65 250.29 130.98 258.05 C 120.64 258.64 114.19 250.20 108.41 243.04 Z" />
<path fill="#ff007f" opacity="1.00" d=" M 106.94 249.89 C 112.04 252.73 117.11 255.67 121.67 259.33 C 123.98 262.78 123.90 268.78 120.05 271.10 C 117.58 272.70 114.77 270.68 112.83 269.17 C 108.62 264.80 104.62 260.17 101.45 254.98 C 105.38 256.72 109.13 258.84 113.13 260.41 C 111.30 256.77 109.13 253.32 106.94 249.89 Z" />
<path fill="#ff007f" opacity="1.00" d=" M 131.56 262.82 C 134.20 265.38 136.97 267.96 138.54 271.36 C 135.38 269.29 133.11 266.22 131.56 262.82 Z" />
<path fill="#ff007f" opacity="1.00" d=" M 126.05 264.83 C 127.23 265.06 128.41 265.29 129.60 265.53 C 129.60 266.01 129.60 266.99 129.60 267.47 C 128.41 267.70 127.23 267.93 126.05 268.17 C 126.05 267.33 126.05 265.67 126.05 264.83 Z" />
<path fill="#ff007f" opacity="1.00" d=" M 202.81 306.42 C 192.06 296.68 186.73 279.75 194.85 266.75 C 197.17 270.97 199.85 274.98 202.98 278.66 C 203.57 283.15 203.56 287.81 205.07 292.14 C 206.96 296.90 204.43 301.95 202.81 306.42 Z" />
<path fill="#ff007f" opacity="1.00" d=" M 218.73 280.56 C 218.40 276.50 218.41 272.42 219.27 268.44 C 219.58 272.47 219.60 276.59 218.73 280.56 Z" />
<path fill="#ff007f" opacity="1.00" d=" M 143.97 270.74 C 148.29 278.31 151.63 286.52 156.94 293.49 C 155.47 286.72 152.33 280.46 150.80 273.70 C 157.96 279.31 164.70 285.68 169.89 293.18 C 172.97 297.35 169.92 302.62 169.78 307.13 C 165.83 304.64 161.54 306.29 157.76 308.21 C 148.95 297.77 145.76 283.95 143.97 270.74 Z" />
<path fill="#ff007f" opacity="1.00" d=" M 126.89 285.68 C 127.69 283.31 128.48 280.94 129.34 278.59 C 129.60 281.40 129.85 284.21 130.10 287.03 C 129.03 286.58 127.96 286.13 126.89 285.68 Z" />
<path fill="#ff007f" opacity="1.00" d=" M 138.55 288.50 C 139.97 287.45 141.39 286.40 142.82 285.36 C 143.64 288.43 144.34 291.46 145.08 294.56 C 142.82 292.63 140.64 290.61 138.55 288.50 Z" />
<path fill="#ff007f" opacity="1.00" d=" M 164.76 337.66 C 166.49 339.38 167.96 341.33 169.15 343.47 C 167.40 341.76 165.95 339.79 164.76 337.66 Z" />
<path fill="#ff007f" opacity="1.00" d=" M 234.81 345.36 C 239.62 348.96 241.07 355.17 239.92 360.88 C 236.84 356.28 235.50 350.79 234.81 345.36 Z" />
<path fill="#ff007f" opacity="1.00" d=" M 247.24 378.74 C 247.88 380.81 248.50 382.88 249.14 384.95 C 248.28 384.95 246.57 384.94 245.71 384.93 C 246.19 382.86 246.71 380.80 247.24 378.74 Z" />
<path fill="#ff007f" opacity="1.00" d=" M 263.73 400.38 C 267.14 402.92 269.52 406.56 270.35 410.76 C 266.39 408.68 264.30 404.68 263.73 400.38 Z" />
<path fill="#ff007f" opacity="1.00" d=" M 279.95 424.24 C 287.15 428.70 292.01 436.26 293.31 444.62 C 285.95 440.25 281.08 432.66 279.95 424.24 Z" />
</g>
</svg>
