<?xml version="1.0" encoding="UTF-8" ?>
<!DOCTYPE svg PUBLIC "-//W3C//DTD SVG 1.1//EN" "http://www.w3.org/Graphics/SVG/1.1/DTD/svg11.dtd">
<svg width="580pt" height="386pt" viewBox="0 0 580 386" version="1.1" xmlns="http://www.w3.org/2000/svg">
<g id="#ffffffff">
</g>
<g id="#ff5484ff">
<path fill="#ff5484" opacity="1.00" d=" M 335.59 93.73 C 336.40 93.06 337.37 91.19 338.60 92.32 C 342.42 94.88 346.38 97.26 350.09 100.00 C 352.33 101.82 351.10 105.03 351.31 107.49 C 355.75 106.74 360.61 106.88 364.47 109.48 C 374.22 115.71 383.71 122.36 393.45 128.62 C 406.52 137.66 420.92 145.44 431.11 157.97 C 437.00 164.89 442.24 173.55 441.25 183.01 C 441.08 185.27 440.84 188.64 438.03 189.09 C 436.50 189.60 435.38 188.34 434.56 187.29 C 429.57 180.79 422.50 176.34 415.43 172.41 C 407.12 167.75 396.81 167.59 387.93 170.64 C 382.82 171.96 376.94 171.89 372.46 168.81 C 360.08 160.80 347.90 152.48 335.55 144.43 C 331.20 142.07 327.18 137.83 327.87 132.51 C 324.65 132.41 321.22 134.72 318.22 132.84 C 314.07 130.27 310.14 127.37 305.99 124.83 C 315.67 114.28 325.88 104.24 335.59 93.73 Z" />
<path fill="#ff5484" opacity="1.00" d=" M 221.99 101.99 C 228.55 99.03 236.14 99.01 243.11 100.28 C 248.25 101.46 253.56 103.28 257.46 106.97 C 257.71 106.86 258.21 106.63 258.46 106.52 C 258.43 107.88 259.60 108.70 260.47 109.57 C 265.46 114.22 268.14 121.13 267.99 127.92 C 267.91 135.26 272.01 141.91 277.03 146.98 C 309.02 178.67 341.04 210.33 372.98 242.08 C 377.27 246.25 383.07 248.51 388.90 249.48 C 397.25 251.07 405.39 256.36 408.62 264.47 C 411.37 270.75 409.89 278.27 405.83 283.64 C 398.14 293.89 383.27 296.66 371.62 292.32 C 363.69 289.53 356.47 282.63 355.71 273.92 C 355.32 270.50 354.95 266.96 353.33 263.87 C 350.35 258.35 345.26 254.53 341.03 250.05 C 311.64 221.09 282.41 191.96 253.12 162.89 C 247.50 157.41 239.75 154.50 232.01 153.91 C 223.15 153.04 214.24 149.48 208.34 142.59 C 204.75 138.31 202.52 132.89 202.33 127.27 C 205.68 127.07 208.39 129.50 211.37 130.68 C 217.08 133.18 222.50 137.24 229.02 137.04 C 236.28 137.17 244.40 132.63 245.88 125.09 C 247.14 119.46 243.49 113.94 238.72 111.26 C 234.30 109.01 229.82 106.85 225.36 104.68 C 224.00 104.11 222.91 103.12 221.99 101.99 M 261.26 148.33 C 258.58 149.47 255.89 151.83 255.96 154.98 C 255.74 157.42 257.05 159.65 258.75 161.28 C 288.08 190.34 317.37 219.43 346.65 248.52 C 349.37 251.46 352.82 254.31 357.07 254.19 C 361.31 254.51 365.99 251.59 366.15 247.04 C 366.42 242.65 362.55 239.89 359.79 237.13 C 331.00 208.60 302.28 180.01 273.47 151.50 C 270.38 148.22 265.54 146.98 261.26 148.33 M 377.67 253.90 C 370.25 255.20 362.92 260.25 360.93 267.81 C 359.39 272.89 361.15 278.50 364.48 282.49 C 373.03 292.14 389.55 292.68 398.94 283.97 C 404.16 279.40 406.18 271.43 403.07 265.10 C 398.57 256.00 387.26 252.01 377.67 253.90 Z" />
<path fill="#ff5484" opacity="1.00" d=" M 309.16 176.00 C 318.20 166.27 327.35 156.60 336.78 147.26 C 343.25 152.09 350.35 156.01 356.82 160.83 C 346.58 171.51 336.42 182.27 326.05 192.83 C 320.46 187.18 314.75 181.65 309.16 176.00 Z" />
<path fill="#ff5484" opacity="1.00" d=" M 261.12 150.13 C 264.70 148.40 269.19 149.37 271.95 152.15 C 301.82 181.93 331.87 211.53 361.76 241.30 C 364.28 243.34 365.30 247.44 363.09 250.06 C 359.95 254.01 353.51 253.15 350.24 249.81 C 320.74 220.64 291.39 191.32 261.82 162.22 C 260.17 160.41 257.85 158.65 257.89 155.95 C 257.41 153.53 259.00 151.16 261.12 150.13 Z" />
<path fill="#ff5484" opacity="1.00" d=" M 282.94 203.21 C 284.27 201.85 285.59 200.48 286.92 199.13 C 292.56 204.78 298.20 210.43 303.90 216.03 C 299.43 220.83 294.78 225.46 290.35 230.30 C 290.11 232.39 289.62 234.55 287.98 236.01 C 275.22 249.33 262.46 262.65 249.68 275.94 C 247.83 278.40 244.24 278.05 242.32 280.40 C 239.30 283.32 236.59 286.54 233.46 289.34 C 227.65 293.70 218.06 293.57 213.45 287.49 C 210.45 283.61 211.49 277.95 214.63 274.48 C 210.23 273.83 204.20 276.28 201.19 271.97 C 199.69 268.93 202.96 266.19 205.82 266.20 C 216.55 265.97 227.29 266.19 238.02 266.13 C 239.95 266.20 242.39 265.29 242.36 262.98 C 241.79 260.93 239.83 259.32 237.67 259.43 C 231.78 259.24 225.88 259.53 220.00 259.32 C 218.52 259.31 217.21 258.64 215.90 258.07 C 214.05 255.25 215.73 251.41 219.21 251.23 C 230.49 250.78 241.82 251.42 253.10 250.93 C 255.88 250.60 256.78 247.45 255.91 245.12 C 254.33 244.41 252.83 243.26 251.01 243.39 C 240.01 243.43 229.01 243.40 218.01 243.42 C 215.61 243.54 212.28 243.08 211.80 240.20 C 210.74 237.15 214.24 234.87 216.96 235.12 C 233.28 235.04 249.62 235.15 265.95 235.08 C 268.05 235.39 269.60 233.80 270.58 232.16 C 271.07 229.02 267.64 227.26 264.95 227.45 C 232.97 227.46 200.98 227.44 169.00 227.46 C 167.49 227.57 166.27 226.55 164.93 226.04 C 164.59 224.81 163.65 223.51 164.31 222.23 C 165.03 219.90 167.69 218.97 169.92 219.11 C 205.96 219.15 241.99 219.10 278.03 219.14 C 280.49 219.32 283.62 217.97 283.49 215.07 C 282.83 213.20 281.18 211.55 279.09 211.59 C 272.74 211.32 266.38 211.63 260.03 211.45 C 257.86 211.48 255.75 209.76 255.73 207.53 C 255.36 204.75 258.53 203.18 260.89 203.15 C 268.24 203.13 275.59 203.05 282.94 203.21 Z" />
<path fill="#ff5484" opacity="1.00" d=" M 200.80 204.71 C 204.98 201.90 210.30 203.59 215.00 203.13 C 218.15 202.94 223.05 202.90 223.62 207.00 C 223.95 210.06 220.68 211.73 218.02 211.51 C 213.02 211.30 207.98 211.88 203.01 211.25 C 199.90 210.63 200.76 206.98 200.80 204.71 Z" />
<path fill="#ff5484" opacity="1.00" d=" M 234.28 203.48 C 237.37 203.03 241.00 202.52 243.78 204.28 C 246.60 205.99 245.27 211.12 241.96 211.25 C 238.87 211.70 235.40 211.97 232.59 210.36 C 230.20 208.43 231.21 204.09 234.28 203.48 Z" />
<path fill="#ff5484" opacity="1.00" d=" M 141.42 219.58 C 145.98 218.78 150.80 218.93 155.39 219.53 C 159.23 220.71 158.80 226.39 155.02 227.31 C 150.68 227.54 146.30 227.60 141.97 227.29 C 137.97 226.87 137.44 220.50 141.42 219.58 Z" />
<path fill="#ff5484" opacity="1.00" d=" M 160.28 251.30 C 172.82 250.78 185.41 251.27 197.97 251.07 C 200.28 250.83 203.13 251.56 204.13 253.87 C 205.23 256.52 202.80 259.60 199.97 259.31 C 187.30 259.44 174.63 259.38 161.97 259.34 C 157.40 259.93 156.24 252.75 160.28 251.30 Z" />
<path fill="#ff5484" opacity="1.00" d=" M 376.32 255.41 C 382.04 254.35 388.33 254.44 393.55 257.33 C 399.37 260.12 403.68 266.47 403.03 273.06 C 402.57 278.57 398.85 283.51 394.00 286.02 C 384.81 291.28 371.73 289.54 365.07 281.03 C 361.51 276.77 360.91 270.40 363.35 265.46 C 365.63 260.17 370.95 256.88 376.32 255.41 M 373.31 259.99 C 372.81 262.64 370.80 264.25 368.15 264.44 C 368.68 267.15 367.77 269.71 365.87 271.65 C 366.96 272.85 368.87 273.93 367.87 275.81 C 366.58 278.34 369.85 278.71 371.40 279.64 C 371.89 280.63 372.23 281.67 372.44 282.76 C 373.93 282.90 375.43 282.94 376.94 282.99 C 378.05 283.87 379.16 284.74 380.26 285.64 C 381.53 285.03 382.81 284.42 384.10 283.84 C 385.59 284.23 387.08 284.61 388.58 284.95 C 389.57 282.13 392.35 281.44 395.03 281.23 C 394.77 278.33 396.84 276.47 399.15 275.20 C 397.56 273.18 397.40 270.93 399.19 268.99 C 397.81 267.51 395.52 266.39 395.90 264.02 C 396.31 261.52 393.28 262.39 391.81 261.99 C 390.92 260.86 390.01 259.74 389.15 258.59 C 386.36 259.55 383.48 259.31 381.07 257.54 C 379.07 259.77 376.20 260.45 373.31 259.99 Z" />
<path fill="#ff5484" opacity="1.00" d=" M 183.39 266.58 C 186.65 265.95 191.27 265.27 193.42 268.48 C 195.25 270.85 192.70 274.42 189.96 274.33 C 187.45 274.45 184.60 274.91 182.37 273.50 C 179.74 271.87 180.64 267.59 183.39 266.58 Z" />
</g>
</svg>
