<svg width="468pt" height="470pt" viewBox="0 0 468 470" version="1.1" xmlns="http://www.w3.org/2000/svg">
<g id="#050d24ff">
</g>
<g id="#f24db0ff">
<path fill="#f24db0" opacity="1.00" d=" M 228.44 5.67 C 237.37 1.99 248.41 8.40 249.73 17.93 C 250.34 25.60 249.84 33.33 250.01 41.02 C 250.34 47.46 246.59 53.93 240.64 56.53 C 233.44 60.06 223.96 56.96 220.14 49.95 C 216.92 44.54 218.27 38.01 218.00 32.05 C 218.20 26.84 217.47 21.54 218.58 16.41 C 219.91 11.53 223.69 7.41 228.44 5.67 Z" />
<path fill="#f24db0" opacity="1.00" d=" M 79.37 67.62 C 84.62 66.30 90.43 67.91 94.29 71.70 C 98.68 75.96 102.92 80.37 107.29 84.64 C 110.57 87.65 113.55 91.39 114.05 95.97 C 115.26 103.37 110.49 111.12 103.35 113.38 C 97.60 115.38 90.89 113.70 86.69 109.32 C 81.69 104.30 76.64 99.32 71.67 94.26 C 66.81 89.38 65.74 81.26 69.24 75.30 C 71.33 71.45 75.14 68.65 79.37 67.62 Z" />
<path fill="#f24db0" opacity="1.00" d=" M 381.38 67.55 C 388.04 65.97 395.49 69.25 398.75 75.28 C 402.12 81.01 401.30 88.81 396.81 93.72 C 392.26 98.54 387.42 103.08 382.81 107.84 C 378.94 112.34 372.90 115.20 366.92 113.95 C 358.30 112.66 352.09 103.42 354.12 94.95 C 355.37 88.28 361.41 84.38 365.68 79.69 C 370.58 75.30 374.52 68.99 381.38 67.55 Z" />
<path fill="#f24db0" opacity="1.00" d=" M 227.38 111.50 C 257.16 109.87 287.45 119.48 310.63 138.30 C 330.05 153.77 344.60 175.30 351.57 199.14 C 361.90 233.26 356.23 271.83 336.38 301.46 C 319.02 328.04 290.89 347.40 259.79 353.86 C 230.90 360.24 199.72 355.53 173.99 340.93 C 146.65 325.71 125.55 299.58 116.65 269.55 C 106.90 238.06 110.76 202.67 127.05 174.02 C 140.53 149.83 162.51 130.48 188.24 120.22 C 200.67 115.12 213.99 112.34 227.38 111.50 M 228.40 143.52 C 206.80 144.80 185.80 154.14 170.45 169.39 C 155.93 183.57 146.42 202.78 144.04 222.93 C 141.31 244.30 146.62 266.59 158.70 284.43 C 170.16 301.65 187.71 314.71 207.51 320.69 C 227.66 326.90 249.97 325.75 269.36 317.46 C 290.54 308.57 308.01 291.26 317.11 270.17 C 324.66 252.93 326.62 233.29 322.60 214.90 C 317.87 192.36 304.04 171.94 284.96 159.05 C 268.54 147.77 248.28 142.25 228.40 143.52 Z" />
<path fill="#f24db0" opacity="1.00" d=" M 16.33 218.61 C 21.47 217.45 26.80 218.20 32.02 218.00 C 38.82 218.18 46.65 216.75 52.20 221.70 C 59.83 227.63 59.83 240.38 52.19 246.30 C 46.33 251.46 38.10 249.72 30.98 250.00 C 24.56 249.72 17.37 251.23 11.75 247.26 C 4.63 242.73 2.46 232.28 7.25 225.31 C 9.33 222.08 12.62 219.64 16.33 218.61 Z" />
<path fill="#f24db0" opacity="1.00" d=" M 423.25 218.26 C 431.51 217.71 439.83 218.07 448.12 218.05 C 456.74 218.21 464.05 226.43 463.30 235.01 C 462.93 242.88 456.02 249.76 448.11 249.94 C 440.70 250.07 433.28 250.00 425.87 249.98 C 418.13 250.07 411.03 243.79 410.15 236.12 C 408.84 227.92 415.03 219.48 423.25 218.26 Z" />
<path fill="#f24db0" opacity="1.00" d=" M 93.38 354.53 C 103.28 350.95 114.76 359.48 114.21 369.98 C 114.41 378.37 106.93 383.35 101.81 388.81 C 97.39 392.78 93.85 398.28 87.90 400.10 C 81.21 402.31 73.26 399.40 69.62 393.35 C 65.84 387.55 66.52 379.34 71.21 374.24 C 75.59 369.61 80.25 365.23 84.69 360.65 C 87.15 358.08 89.88 355.55 93.38 354.53 Z" />
<path fill="#f24db0" opacity="1.00" d=" M 364.42 354.69 C 369.98 352.67 376.55 354.07 380.79 358.20 C 386.00 363.33 391.16 368.52 396.31 373.72 C 400.82 378.28 402.13 385.63 399.40 391.44 C 396.38 398.52 387.82 402.45 380.47 400.22 C 374.35 398.51 370.71 392.91 366.23 388.85 C 361.83 383.95 355.48 379.98 354.14 373.09 C 352.34 365.50 357.03 357.14 364.42 354.69 Z" />
<path fill="#f24db0" opacity="1.00" d=" M 231.25 410.24 C 240.22 408.40 249.60 415.75 249.92 424.90 C 250.07 432.63 250.04 440.36 249.94 448.09 C 249.77 456.02 242.85 462.97 234.95 463.30 C 226.39 464.01 218.23 456.74 218.06 448.15 C 217.93 440.71 218.00 433.28 218.02 425.84 C 217.94 418.34 223.85 411.41 231.25 410.24 Z" />
</g>
</svg>
